<!-- <svg xmlns="http://www.w3.org/2000/svg" fill="none" viewBox="0 0 36 36">
  <path fill="#000" d="M22.25 4h-8.5a1 1 0 0 0-.96.73l-5.54 19.4a.5.5 0 0 0 .62.62l5.05-1.44a2 2 0 0 0 1.38-1.4l3.22-11.66a.5.5 0 0 1 .96 0l3.22 11.67a2 2 0 0 0 1.38 1.39l5.05 1.44a.5.5 0 0 0 .62-.62l-5.54-19.4a1 1 0 0 0-.96-.73Z"/>
  <path fill="url(#gradient)" d="M18 28a7.63 7.63 0 0 1-5-2c-1.4 2.1-.35 4.35.6 5.55.14.17.41.07.47-.15.44-1.8 2.93-1.22 2.93.6 0 2.28.87 3.4 1.72 3.81.34.16.59-.2.49-.56-.31-1.05-.29-2.46 1.29-3.25 3-1.5 3.17-4.83 2.5-6-.67.67-2.6 2-5 2Z"/>
  <defs>
    <linearGradient id="gradient" x1="16" x2="16" y1="32" y2="24" gradientUnits="userSpaceOnUse">
      <stop stop-color="#000"/>
      <stop offset="1" stop-color="#000" stop-opacity="0"/>
    </linearGradient>
  </defs>
	<style>
    @media (prefers-color-scheme:dark){:root{filter:invert(100%)}}
  </style>
</svg> -->
<svg width="306" height="191" viewBox="0 0 306 191" fill="none" xmlns="http://www.w3.org/2000/svg">
<path d="M86.3583 133.704C85.3119 133.782 84.158 133.055 82.8965 131.523C81.73 129.984 81.0426 128.457 80.8344 126.942C79.6633 121.482 78.235 115.132 76.549 107.893C74.9514 100.552 72.874 91.9079 70.3174 81.9601C67.867 87.5937 65.4606 93.1763 63.0983 98.7077C60.736 104.239 58.3736 109.771 56.0113 115.302C54.5467 118.758 52.9109 120.554 51.1036 120.688C48.4405 120.886 46.2454 119.662 44.5185 117.017C40.8289 112.414 37.0214 108.154 33.096 104.238C29.2585 100.219 25.282 96.2589 21.1662 92.3567C21.4498 98.7435 21.9641 105.017 22.7089 111.179C23.542 117.238 24.6021 123.136 25.8895 128.875C26.1576 129.907 26.0855 130.869 25.6737 131.76C25.3498 132.549 24.957 133.056 24.4956 133.282C23.1994 133.857 21.8466 133.671 20.4372 132.723C19.0278 131.776 18.1346 130.695 17.7573 129.479C16.6467 126.119 15.7456 122.36 15.054 118.204C14.3624 114.047 13.7625 109.835 13.254 105.569C12.8407 101.296 12.4785 97.0672 12.1674 92.8822C11.8562 88.6972 11.621 84.8891 11.4615 81.4579C11.1787 77.6533 12.2737 75.6592 14.7467 75.4753C16.2685 75.3622 17.595 75.8373 18.7262 76.9009C19.8501 77.8694 20.5339 79.3489 20.7775 81.3392C25.8868 85.7414 30.7214 90.3074 35.2812 95.0373C39.9289 99.6651 44.4412 104.399 48.8179 109.238C51.7013 102.998 54.6218 96.6121 57.5793 90.0801C60.5296 83.4529 63.9221 76.9841 67.7568 70.6736C67.8692 69.6132 68.3146 68.5282 69.0928 67.4182C69.8641 66.2132 70.7586 65.3815 71.7765 64.9233C72.7945 64.4651 73.9201 64.8118 75.1535 65.9635C76.3868 67.1151 77.2538 68.4853 77.7544 70.0739C80.0855 79.5602 82.1788 89.0642 84.0344 98.5859C85.985 108.1 87.8881 117.619 89.7436 127.14C90.0683 128.933 89.8485 130.48 89.0843 131.78C88.3132 132.986 87.4045 133.627 86.3583 133.704ZM121.066 67.2844C120.946 68.2497 120.319 68.8224 119.185 69.0023C118.051 69.1823 117.103 69.3005 116.342 69.357C113.971 69.629 111.516 70.0506 108.976 70.622C106.532 71.1863 103.958 71.9514 101.257 72.9174C100.144 73.3827 98.8965 73.332 97.5155 72.7651C96.1344 72.1983 95.2268 70.9269 94.793 68.9506C94.7364 68.1897 94.9758 67.5503 95.5111 67.0323C96.0465 66.5143 96.6805 66.0367 97.4131 65.5997C98.6071 64.9371 100.046 64.352 101.73 63.8443C103.407 63.2414 105.094 62.7812 106.792 62.4637C108.585 62.1391 110.293 61.9643 111.917 61.9392C113.534 61.819 114.877 61.8627 115.944 62.0702C117.501 62.4327 118.743 63.0577 119.67 63.9452C120.692 64.8256 121.157 65.9387 121.066 67.2844ZM121.316 115.038C122.095 116.51 122.552 118.15 122.686 119.957C122.909 121.662 122.521 122.886 121.525 123.63C120.257 124.585 118.826 124.644 117.234 123.806C115.641 122.967 114.405 121.768 113.523 120.208C112.329 118.288 111.34 115.923 110.557 113.112C109.767 110.206 109.123 107.337 108.626 104.505C108.129 101.672 107.74 99.0233 107.461 96.5574C107.278 94.0843 107.14 92.2297 107.048 90.9932C107.044 89.6545 107.332 88.3897 107.913 87.1988C108.494 86.0081 109.301 85.2786 110.333 85.0106C112.052 84.9784 113.491 85.6843 114.651 87.1283C115.803 88.4773 116.413 90.2491 116.48 92.4439C116.608 94.1559 116.797 96.0547 117.047 98.1401C117.298 100.226 117.644 102.304 118.085 104.375C118.526 106.446 119.011 108.467 119.54 110.436C120.061 112.31 120.654 113.844 121.316 115.038ZM171.744 75.1371C172.117 75.0138 172.685 74.9237 173.445 74.8671C174.199 74.7155 174.916 74.71 175.597 74.8507C176.364 74.8893 176.999 75.0811 177.504 75.4263C178.096 75.6691 178.457 76.0249 178.588 76.4933C178.862 77.6206 178.749 78.681 178.25 79.6745C177.838 80.5659 176.992 81.3941 175.709 82.1588C172.221 84.1396 168.61 86.3688 164.873 88.8463C161.129 91.2286 157.941 93.3784 155.311 95.2955C157.107 96.3097 159.152 97.4488 161.446 98.7128C163.835 99.9699 166.278 101.318 168.776 102.759C171.268 104.104 173.769 105.591 176.281 107.222C178.786 108.757 181.148 110.303 183.368 111.859C185.391 113.335 185.834 114.784 184.696 116.208C184.175 116.916 183.259 117.462 181.948 117.847C180.734 118.224 179.534 118.17 178.349 117.684C176.179 116.793 173.804 115.726 171.227 114.484C168.639 113.146 166.006 111.811 163.325 110.48C160.637 109.054 158 107.672 155.414 106.334C152.916 104.894 150.619 103.583 148.522 102.399C149.149 105.7 149.73 109.004 150.262 112.312C150.891 115.613 151.472 118.917 152.004 122.225C152.709 123.99 152.771 125.467 152.19 126.658C151.609 127.849 150.554 128.454 149.025 128.472C147.388 128.306 146.152 127.777 145.321 126.882C144.483 125.892 143.812 124.603 143.312 123.014C142.451 119.157 141.443 114.594 140.286 109.324C139.224 104.047 138.1 98.5833 136.915 92.9331C135.729 87.2828 134.556 81.7752 133.391 76.4103C132.323 71.0383 131.347 66.281 130.465 62.1383C130.176 60.8209 129.927 59.4049 129.719 57.8901C129.599 56.2731 130.044 55.188 131.055 54.6346C132.439 53.9578 133.938 54.1811 135.552 55.3045C137.159 56.3328 138.432 58.0075 139.369 60.3288C140.454 64.6475 141.57 69.3466 142.712 74.4262C143.855 79.5058 145.019 84.8707 146.203 90.5211C148.021 89.2383 150.118 87.8392 152.492 86.3237C154.953 84.706 157.374 83.187 159.756 81.7667C162.225 80.2443 164.514 78.8785 166.625 77.6696C168.733 76.4607 170.441 75.6166 171.744 75.1371ZM225.971 84.304C222.425 86.7674 218.557 88.7765 214.369 90.3311C210.173 91.7907 205.603 92.7043 200.657 93.072C201.095 96.3869 202.244 98.9794 204.105 100.849C205.958 102.625 208.184 103.607 210.78 103.796C212.315 103.873 213.833 103.713 215.334 103.314C216.93 102.909 218.373 102.371 219.662 101.701C221.038 100.929 222.27 100.121 223.355 99.275C224.44 98.4292 225.382 97.5941 226.181 96.7695C226.981 95.9448 227.848 95.4021 228.786 95.1412C229.716 94.7852 230.425 94.6846 230.915 94.8394C232.282 95.216 232.864 96.6075 232.66 99.0136C231.364 102.17 229.372 104.949 226.68 107.348C223.983 109.653 220.895 111.221 217.419 112.054C214.418 112.851 211.267 112.941 207.97 112.326C204.673 111.71 201.648 110.261 198.896 107.979C196.546 105.954 194.69 103.51 193.33 100.646C191.97 97.7826 191.03 94.792 190.511 91.6744C190.006 88.7471 190.036 85.9235 190.599 83.2037C191.257 80.4769 192.367 78.0511 193.931 75.9265C195.488 73.7067 197.5 71.8356 199.969 70.313C202.439 68.7906 205.378 67.8069 208.788 67.3621C212.857 66.7727 216.623 67.2578 220.086 68.8175C223.55 70.3773 226.067 72.7245 227.639 75.8595C228.535 77.61 228.842 79.1652 228.56 80.5251C228.373 81.878 227.511 83.1376 225.971 84.304ZM208.843 75.8221C207.907 76.0831 206.884 76.4937 205.779 77.0542C204.767 77.6075 203.815 78.3 202.921 79.1317C202.114 79.861 201.366 80.7296 200.675 81.7373C200.073 82.6429 199.767 83.6699 199.757 84.8184C201.373 84.6981 203.123 84.4247 205.004 83.9979C206.979 83.564 208.858 83.0897 210.637 82.5749C212.503 81.9579 214.176 81.3075 215.656 80.6237C217.23 79.9328 218.516 79.2155 219.512 78.472C218.618 76.7214 217.109 75.7336 214.988 75.5087C212.956 75.1816 210.907 75.2861 208.843 75.8221Z" fill="white"/>
<path fill-rule="evenodd" clip-rule="evenodd" d="M204.172 134.939C203.976 135.154 202.172 135.469 200.164 135.64C197.106 135.898 196.453 136.086 196.155 136.79C195.827 137.571 195.81 137.571 195.914 136.792C196.015 136.052 195.787 135.992 193.98 136.28C192.854 136.46 191.947 136.737 191.964 136.897C191.981 137.057 191.58 137.122 191.074 137.043C190.408 136.939 190.241 137.052 190.47 137.452C190.696 137.847 190.563 137.847 189.997 137.452C189.329 136.986 189.17 137.016 188.962 137.648C188.799 138.145 188.693 138.197 188.647 137.803C188.562 137.071 183.97 137.455 183.73 138.214C183.644 138.487 183.734 138.693 183.93 138.672C184.127 138.651 184.311 138.848 184.339 139.109C184.435 139.994 183.653 139.671 183.364 138.705C183.101 137.83 182.889 137.789 180.866 138.226C179.65 138.489 178.471 138.738 178.246 138.777C177.999 138.82 177.961 139.169 178.149 139.658C178.422 140.365 178.381 140.392 177.82 139.875C177.468 139.549 177.197 139.443 177.218 139.638C177.239 139.833 177.046 139.818 176.787 139.606C176.077 139.023 172.874 139.631 172.305 140.458C171.919 141.018 171.756 141.053 171.598 140.609C171.469 140.243 171.204 140.195 170.871 140.478C170.584 140.721 169.688 140.948 168.88 140.981C167.775 141.027 167.279 141.302 166.868 142.095C166.567 142.674 166.204 143.014 166.059 142.851C165.914 142.687 165.982 142.534 166.21 142.51C166.438 142.485 166.506 142.261 166.363 142.012C166.22 141.763 165.439 141.63 164.627 141.719C163.363 141.855 163.144 142.035 163.118 142.963L163.087 144.049L162.926 142.984C162.752 141.842 162.197 141.593 162.063 142.596C161.936 143.544 162.803 145.207 163.419 145.193C165.551 145.146 167.532 144.882 168.515 144.518C169.148 144.283 170.535 143.952 171.597 143.784C173.399 143.499 173.661 143.234 173.403 141.973C173.35 141.714 173.556 141.854 173.861 142.284C174.563 143.273 175.482 143.184 176.184 142.061C176.589 141.413 176.701 141.369 176.618 141.894C176.53 142.443 176.879 142.581 178.186 142.519C179.678 142.446 179.872 142.315 179.903 141.372L179.937 140.305L180.295 141.317C180.629 142.262 180.82 142.296 183.217 141.857C184.628 141.597 186.729 141.249 187.885 141.08C189.042 140.912 189.968 140.581 189.943 140.346C189.917 140.111 190.238 140.123 190.658 140.372C191.251 140.727 191.526 140.655 191.904 140.047C192.257 139.484 192.569 139.382 193.04 139.676C193.907 140.219 197.701 140.17 197.877 139.615C197.954 139.372 198.572 139.288 199.26 139.427C199.944 139.565 201.279 139.452 202.226 139.177C203.173 138.901 204.923 138.679 206.114 138.684C207.304 138.688 208.325 138.609 208.383 138.505C208.44 138.402 211.385 138.007 214.927 137.628C220.684 137.011 221.359 136.855 221.287 136.154C221.222 135.517 221.276 135.488 221.577 135.999C221.794 136.368 222.229 136.489 222.629 136.292C223.004 136.106 223.33 136.13 223.354 136.346C223.377 136.563 224.457 136.588 225.753 136.403C227.056 136.217 228.088 135.855 228.063 135.591C228.038 135.329 228.163 135.363 228.342 135.666C228.575 136.064 229.752 136.059 232.522 135.648C234.642 135.334 236.523 135.003 236.702 134.913C236.88 134.823 237.108 134.793 237.207 134.846C237.924 135.229 241.89 134.968 244.591 134.359C245.554 134.142 246.357 134.102 246.375 134.268C246.394 134.436 246.755 134.58 247.179 134.589C250.014 134.652 251.411 134.495 251.739 134.078C251.978 133.771 252.135 133.789 252.172 134.131C252.253 134.884 254.448 134.559 254.82 133.74C254.988 133.367 255.037 132.959 254.926 132.834C254.816 132.711 254.928 132.313 255.176 131.952C255.544 131.413 255.64 131.423 255.703 132.008C255.745 132.4 255.582 133.009 255.34 133.363C254.607 134.433 255.185 134.709 257.675 134.473C258.982 134.35 260.218 134.364 260.422 134.506C260.625 134.648 260.847 134.412 260.916 133.984C261.029 133.282 261.091 133.279 261.547 133.964C262.017 134.673 262.074 134.66 262.365 133.771C262.622 132.988 262.662 132.969 262.585 133.667C262.524 134.212 262.67 134.499 262.987 134.465C263.259 134.436 263.447 134.037 263.404 133.579C263.335 132.846 263.384 132.828 263.814 133.421C264.152 133.889 264.823 134.012 265.983 133.821C266.906 133.669 268.42 133.709 269.345 133.909C270.663 134.195 271.165 134.126 271.655 133.592C272 133.217 272.205 133.151 272.111 133.445C272.016 133.747 272.209 133.966 272.557 133.95C272.896 133.934 273.487 133.988 273.873 134.071C274.494 134.207 277.451 133.954 278.043 133.715C278.167 133.665 278.554 133.76 278.904 133.927C279.255 134.093 279.83 134.085 280.185 133.91C280.538 133.734 280.847 133.756 280.868 133.959C280.891 134.16 281.554 134.26 282.345 134.177C283.716 134.036 285.14 134.134 288.351 134.592C289.265 134.723 289.92 134.599 290.111 134.258C290.324 133.877 290.432 133.885 290.476 134.286C290.557 135.041 291.464 134.923 291.601 134.14C291.686 133.65 291.725 133.646 291.798 134.119C291.927 134.958 293.257 134.713 293.165 133.866C293.12 133.456 293.3 133.254 293.604 133.379C293.886 133.494 294.071 133.878 294.014 134.232C293.944 134.672 294.187 134.824 294.776 134.71C295.506 134.572 295.551 134.47 295.062 134.065C294.54 133.632 294.532 133.548 294.985 133.237C295.275 133.037 295.423 133.099 295.332 133.383C295.246 133.653 295.338 133.857 295.535 133.836C295.731 133.814 295.927 134.119 295.97 134.511C296.052 135.272 296.473 135.407 296.821 134.785C297.175 134.154 298.138 134.236 298.655 134.942C299.089 135.537 299.137 135.531 299.083 134.895C299.043 134.445 299.133 134.359 299.324 134.662C299.652 135.184 302.696 136.578 302.862 136.282C302.918 136.183 302.657 135.624 302.282 135.04C301.645 134.044 301.594 134.036 301.475 134.902C301.357 135.759 301.272 135.737 300.344 134.611C299.728 133.865 298.93 133.399 298.28 133.404C297.697 133.409 297.204 133.271 297.184 133.097C297.069 132.047 290.701 130.768 289.794 131.613C289.438 131.944 289.199 131.88 289.012 131.406C288.845 130.977 288.292 130.771 287.531 130.853C286.651 130.948 286.405 131.14 286.636 131.551C286.835 131.904 286.701 131.885 286.282 131.499C285.913 131.159 285.195 130.898 284.686 130.919C284.177 130.94 283.555 130.814 283.303 130.639C283.05 130.463 281.662 130.365 280.218 130.421C278.774 130.476 277.588 130.493 277.584 130.458C277.543 130.077 274.797 130.57 274.656 130.984C274.52 131.379 274.445 131.368 274.396 130.949C274.358 130.623 274.165 130.373 273.968 130.394C273.772 130.415 273.74 130.658 273.898 130.933C274.056 131.208 273.789 131.154 273.307 130.813C272.269 130.081 268.118 129.854 268.192 130.534C268.222 130.802 267.856 130.8 267.313 130.529C266.56 130.154 266.339 130.202 266.154 130.784C265.963 131.383 265.795 131.413 265.154 130.964C264.387 130.429 262.67 130.265 258.771 130.354C257.647 130.38 256.722 130.371 256.718 130.335C256.714 130.298 256.073 130.298 255.294 130.334C254.181 130.385 253.968 130.521 254.299 130.966C254.621 131.396 254.581 131.475 254.135 131.293C253.813 131.161 253.527 130.851 253.5 130.605C253.474 130.357 252.657 130.267 251.683 130.403C250.178 130.614 243.814 130.972 240.38 131.038C239.813 131.049 239.095 131.234 238.782 131.449C238.44 131.683 238.277 131.643 238.37 131.347C238.59 130.654 238.016 130.792 237.602 131.531C237.334 132.009 237.154 132.028 236.791 131.619C236.213 130.968 234.75 131.076 234.824 131.764C234.853 132.04 234.681 132.13 234.438 131.961C233.922 131.601 225.288 132.318 225.505 132.703C225.587 132.847 225.296 133.422 224.857 133.98L224.062 134.995L224.595 133.889C225.125 132.784 225.125 132.783 224.139 132.844C223.597 132.878 222.577 132.912 221.873 132.92C221.119 132.93 220.614 133.151 220.643 133.459C220.672 133.755 220.541 133.72 220.341 133.38C219.994 132.787 218.337 133.053 217.631 133.813C217.453 134.007 217.288 133.991 217.265 133.78C217.2 133.184 211.021 134.122 210.944 134.739C210.899 135.095 210.545 135.077 209.858 134.683C209.299 134.362 208.765 134.232 208.673 134.393C208.469 134.76 205.979 135.004 205.142 134.74C204.805 134.633 204.368 134.723 204.172 134.939ZM175.774 140.515C175.917 140.764 175.882 140.984 175.696 141.004C175.51 141.025 175.241 140.837 175.098 140.588C174.955 140.339 174.99 140.119 175.176 140.099C175.362 140.079 175.631 140.266 175.774 140.515ZM156.978 143.269C156.532 143.675 156.071 143.845 155.954 143.644C155.669 143.146 153.997 143.355 153.329 143.972C152.966 144.306 152.766 144.298 152.728 143.95C152.697 143.661 152.417 143.569 152.107 143.744C151.797 143.919 150.996 144.172 150.324 144.305C149.509 144.466 149.18 144.736 149.331 145.121C149.471 145.478 149.287 145.697 148.845 145.697C148.452 145.698 148.105 145.46 148.074 145.167C148.001 144.493 146.775 144.732 146.344 145.505C146.13 145.884 145.798 145.956 145.387 145.711C144.998 145.48 143.632 145.65 141.813 146.159C140.193 146.611 137.885 147.137 136.684 147.328C135.483 147.518 134.213 147.947 133.862 148.281C133.513 148.615 133.011 148.738 132.747 148.554C132.483 148.371 131.731 148.45 131.075 148.726C130.419 149.005 128.73 149.458 127.322 149.732C125.914 150.007 124.6 150.406 124.403 150.619C124.205 150.833 123.114 151.196 121.976 151.427C118.858 152.063 117.411 152.462 115.614 153.183C114.716 153.542 113.854 153.748 113.698 153.64C113.542 153.531 113.437 153.645 113.464 153.894C113.491 154.143 113.29 154.499 113.019 154.687C112.747 154.874 112.583 154.841 112.655 154.615C112.803 154.147 110.994 154.453 109.94 155.074C109.457 155.358 109.331 155.725 109.535 156.249C109.792 156.912 109.74 156.91 109.136 156.235C108.592 155.627 108.104 155.552 106.896 155.893C106.046 156.133 104.895 156.439 104.336 156.572C103.778 156.705 103.189 156.951 103.028 157.118C102.867 157.285 102.309 157.4 101.789 157.374C101.269 157.347 100.865 157.522 100.891 157.763C100.917 158.003 100.669 158.198 100.339 158.195C99.0465 158.182 98.5347 158.472 98.8522 159.038C99.068 159.423 98.9644 159.415 98.5279 159.015C98.1293 158.648 97.9069 158.62 97.9417 158.942C97.9725 159.227 97.7727 159.369 97.4974 159.256C97.2224 159.145 96.9204 159.296 96.8264 159.593C96.7323 159.889 96.5204 160.038 96.3548 159.924C95.8868 159.598 90.6428 161.23 89.9187 161.927C89.5633 162.27 88.9074 162.622 88.4613 162.711C88.0153 162.8 87.4245 163.385 87.1489 164.012C86.6901 165.054 86.4633 165.02 86.4889 163.915C86.5022 163.326 83.3499 164.228 83.2736 164.834C83.2397 165.103 82.7669 165.274 82.2223 165.213C81.05 165.083 80.6742 165.893 81.4257 166.929C81.9169 167.606 81.8847 167.608 81.0497 166.958C80.1199 166.233 78.2209 166.498 76.8215 167.547C76.4736 167.808 75.7787 168.198 75.2771 168.412C74.7755 168.627 74.4707 168.987 74.5996 169.211C74.7288 169.436 74.6859 169.779 74.5046 169.975C74.2922 170.205 74.411 170.525 74.839 170.88C75.6003 171.511 76.4656 171.125 76.0305 170.348C75.8709 170.062 76.0282 170.093 76.3803 170.418C76.9268 170.92 77.1337 170.878 77.7913 170.125C78.2155 169.64 78.7125 169.348 78.8958 169.476C79.0795 169.603 79.3045 169.471 79.396 169.182C79.4874 168.892 79.8921 168.762 80.2945 168.892C80.8627 169.076 80.9634 168.966 80.7436 168.407C80.5154 167.826 80.6133 167.747 81.2468 168.004C81.8358 168.244 82.2103 168.047 82.7379 167.219C83.1255 166.609 83.3671 166.375 83.2744 166.698C83.0116 167.612 83.6865 167.811 84.3176 167.004C84.6389 166.592 85.0544 166.433 85.272 166.639C85.9063 167.236 87.9529 166.168 87.8629 165.287C87.7616 164.298 88.1676 163.528 88.3182 164.422C88.3806 164.791 88.4278 165.276 88.4238 165.499C88.4068 166.458 89.2308 165.307 89.3256 164.238C89.3941 163.467 89.4727 163.347 89.5535 163.889C89.6662 164.645 90.3721 164.93 91.1978 164.554C91.3769 164.471 91.8217 164.318 92.1863 164.21C92.5508 164.105 92.8432 163.961 92.8359 163.895C92.8163 163.714 93.9104 163.351 96.1363 162.801C98.4631 162.227 99.0519 161.927 98.78 161.454C98.6718 161.266 99.0247 161.063 99.5643 161.005C100.104 160.947 100.561 161.039 100.58 161.211C100.598 161.382 100.905 161.378 101.262 161.202C101.619 161.025 101.89 160.68 101.863 160.436C101.837 160.191 102.5 160.031 103.347 160.08C104.429 160.141 105.003 159.945 105.3 159.417C105.6 158.879 105.774 158.822 105.914 159.215C106.063 159.636 106.635 159.571 108.389 158.933C109.644 158.477 110.935 158.065 111.26 158.02C111.584 157.974 111.827 157.732 111.8 157.481C111.773 157.231 112.147 157.12 112.632 157.235C113.138 157.354 113.701 157.169 113.953 156.802C114.194 156.449 114.413 156.358 114.439 156.6C114.468 156.865 115.372 156.783 116.724 156.39C117.955 156.032 119.343 155.714 119.81 155.682C120.277 155.65 121.319 155.334 122.127 154.979C122.935 154.623 124.345 154.154 125.262 153.936C126.179 153.719 127.446 153.349 128.079 153.116C128.712 152.883 130.211 152.518 131.41 152.304C135.566 151.564 138.924 150.646 139.266 150.156C139.457 149.881 139.711 149.838 139.837 150.056C140.155 150.611 142.876 149.934 143.628 149.113C143.839 148.884 144.032 148.888 144.057 149.122C144.082 149.358 144.588 149.421 145.183 149.262C145.777 149.103 146.749 148.872 147.345 148.75C148.487 148.516 148.976 147.359 148.174 146.786C147.913 146.599 147.827 146.429 147.982 146.408C148.138 146.387 148.7 146.757 149.229 147.228C150.21 148.104 152.846 148.207 152.755 147.367C152.727 147.108 153.221 147.068 153.972 147.271C155.53 147.689 156.22 147.282 155.836 146.172C155.655 145.648 155.677 145.535 155.898 145.869C156.424 146.663 158.182 146.976 158.105 146.262C158.056 145.8 158.162 145.79 158.61 146.211C158.99 146.57 159.67 146.584 160.675 146.256C162.138 145.779 162.167 145.73 161.919 144.143C161.763 143.146 161.487 142.539 161.206 142.568C160.955 142.596 160.878 142.843 161.036 143.118C161.193 143.393 160.884 143.293 160.348 142.896C159.788 142.482 159.397 142.394 159.43 142.692C159.467 143.042 159.209 143.099 158.639 142.87C158.062 142.637 157.534 142.764 156.978 143.269ZM171.491 142.34C171.61 142.547 171.494 142.74 171.232 142.768C170.969 142.797 170.813 142.633 170.886 142.405C170.957 142.177 171.075 141.984 171.145 141.976C171.217 141.969 171.372 142.132 171.491 142.34ZM125.589 152.213C125.615 152.459 125.485 152.677 125.299 152.696C125.113 152.716 124.925 152.4 124.881 151.992C124.837 151.585 124.967 151.366 125.171 151.508C125.374 151.65 125.562 151.967 125.589 152.213ZM80.003 166.935C80.0154 167.051 79.8879 167.294 79.7194 167.476C79.551 167.657 79.3887 167.579 79.3589 167.302C79.329 167.025 79.4565 166.783 79.6424 166.763C79.8283 166.742 79.9905 166.82 80.003 166.935ZM70.9667 171.103C70.5729 171.372 70.2742 171.813 70.3033 172.083C70.3784 172.779 71.292 172.594 71.4211 171.858C71.5036 171.385 71.6191 171.388 71.9267 171.868C72.3755 172.569 74.0558 172.012 73.9671 171.189C73.9317 170.862 73.7342 170.875 73.3735 171.229C72.9949 171.598 72.6596 171.585 72.2577 171.186C71.8709 170.801 71.4486 170.774 70.9667 171.103ZM68.9503 172.217C68.9768 172.463 69.1907 172.797 69.4254 172.96C69.6775 173.136 69.7383 173.059 69.5738 172.773C69.4209 172.507 69.4751 172.161 69.6944 172.002C69.9348 171.83 69.8566 171.727 69.4974 171.743C69.1698 171.757 68.9237 171.97 68.9503 172.217ZM67.3672 173.385C67.3983 173.673 67.5615 173.76 67.73 173.579C67.8984 173.397 68.0722 173.583 68.1161 173.989C68.1601 174.397 68.4243 174.706 68.703 174.675C69.2524 174.617 69.2964 174.169 68.8231 173.461C68.3942 172.818 67.2999 172.763 67.3672 173.385ZM70.9658 173.47C70.8791 173.744 70.9695 173.951 71.1661 173.93C71.3628 173.908 71.5008 173.677 71.4726 173.416C71.4444 173.153 71.3544 172.947 71.2723 172.956C71.1902 172.965 71.0524 173.196 70.9658 173.47ZM65.8361 174.785C65.9121 175.336 66.0043 175.441 66.0712 175.05C66.1318 174.697 66.0753 174.287 65.9462 174.142C65.8169 173.996 65.7675 174.286 65.8361 174.785ZM63.5167 175.717C63.138 176.158 63.1465 176.309 63.5661 176.613C64.218 177.089 65.3792 176.518 65.1396 175.841C64.8896 175.135 64.0718 175.073 63.5167 175.717ZM61.7841 176.795C61.7101 177.028 61.9119 177.602 62.2323 178.069C62.5528 178.536 62.7931 178.668 62.7658 178.362C62.7389 178.056 62.7724 177.457 62.8406 177.031C62.9718 176.212 62.0345 176.003 61.7841 176.795ZM60.5888 177.5C60.5022 178.448 60.688 179.869 60.8963 179.847C61.3425 179.798 61.429 178.206 61.011 177.734C60.79 177.485 60.6001 177.379 60.5888 177.5ZM58.9128 178.986C58.579 179.415 58.6369 181.533 58.9814 181.496C59.1018 181.483 59.4195 181.006 59.6875 180.435C60.3346 179.059 59.7328 177.933 58.9128 178.986ZM57.5553 180.66C57.6133 181.198 57.8129 181.622 57.9988 181.602C58.1846 181.582 58.3035 181.258 58.2628 180.88C58.2221 180.504 58.0225 180.08 57.8193 179.938C57.616 179.797 57.4971 180.121 57.5553 180.66ZM56.199 181.168C55.8773 181.896 55.8861 181.955 56.258 181.562C56.585 181.219 56.6613 181.308 56.5634 181.919C56.4917 182.366 56.5643 182.719 56.7242 182.702C57.0175 182.67 57.3037 181.496 57.2162 180.685C57.1408 179.987 56.6084 180.24 56.199 181.168Z" fill="white"/>
</svg>
